<svg width="49" height="47" viewBox="0 0 49 47" fill="none" xmlns="http://www.w3.org/2000/svg">
<ellipse cx="24.8262" cy="23.7396" rx="24.0293" ry="22.7718" fill="#98C1A9"/>
<path d="M15.8115 22.6415C15.205 22.6415 14.7133 23.1332 14.7133 23.7397C14.7133 24.3463 15.205 24.838 15.8115 24.838V22.6415ZM34.6101 24.5163C35.0389 24.0874 35.0389 23.3921 34.6101 22.9632L27.6211 15.9742C27.1922 15.5453 26.4968 15.5453 26.068 15.9742C25.6391 16.4031 25.6391 17.0984 26.068 17.5273L32.2804 23.7397L26.068 29.9522C25.6391 30.3811 25.6391 31.0764 26.068 31.5053C26.4968 31.9342 27.1922 31.9342 27.6211 31.5053L34.6101 24.5163ZM15.8115 23.7397V24.838H33.8335V23.7397V22.6415H15.8115V23.7397Z" fill="white"/>
</svg>
