<svg width="407" height="121" viewBox="0 0 407 121" fill="none" xmlns="http://www.w3.org/2000/svg">
<path d="M6.43465 53.1024C2.66471 58.5703 2.66471 65.7987 6.43465 71.2666L35.6315 113.613C38.6179 117.945 43.5429 120.531 48.804 120.531H355.009C360.27 120.531 365.195 117.945 368.181 113.613L397.378 71.2666C401.148 65.7987 401.148 58.5703 397.378 53.1024L368.181 10.7556C365.195 6.42416 360.27 3.83768 355.009 3.83768H48.804C43.5428 3.83768 38.6179 6.42416 35.6315 10.7556L6.43465 53.1024Z" fill="white" fill-opacity="0.29"/>
<path d="M6.43465 53.1024C2.66471 58.5703 2.66471 65.7987 6.43465 71.2666L35.6315 113.613C38.6179 117.945 43.5429 120.531 48.804 120.531H355.009C360.27 120.531 365.195 117.945 368.181 113.613L397.378 71.2666C401.148 65.7987 401.148 58.5703 397.378 53.1024L368.181 10.7556C365.195 6.42416 360.27 3.83768 355.009 3.83768H48.804C43.5428 3.83768 38.6179 6.42416 35.6315 10.7556L6.43465 53.1024Z" fill="url(#paint0_linear_12_38)" fill-opacity="0.5"/>
<path d="M400.878 67.6853L361.636 7.17747H38.0342L42.5697 0.498032H365.383L406.597 63.9526L400.878 67.6853Z" fill="#22AA05"/>
<defs>
<linearGradient id="paint0_linear_12_38" x1="201.906" y1="3.83768" x2="201.906" y2="120.531" gradientUnits="userSpaceOnUse">
<stop stop-color="white" stop-opacity="0.6"/>
<stop offset="1" stop-color="#999999" stop-opacity="0.3"/>
</linearGradient>
</defs>
</svg>
