<svg width="405" height="121" viewBox="0 0 405 121" fill="none" xmlns="http://www.w3.org/2000/svg">
<path d="M6.74176 53.055C2.97182 58.5229 2.97182 65.7513 6.74176 71.2192L35.9386 113.566C38.925 117.897 43.85 120.484 49.1112 120.484H355.513C360.774 120.484 365.699 117.897 368.686 113.566L397.882 71.2192C401.652 65.7513 401.652 58.5229 397.882 53.055L368.686 10.7082C365.699 6.37678 360.774 3.79031 355.513 3.79031H49.1112C43.85 3.79031 38.925 6.37679 35.9386 10.7082L6.74176 53.055Z" fill="white" fill-opacity="0.29"/>
<path d="M6.74176 53.055C2.97182 58.5229 2.97182 65.7513 6.74176 71.2192L35.9386 113.566C38.925 117.897 43.85 120.484 49.1112 120.484H355.513C360.774 120.484 365.699 117.897 368.686 113.566L397.882 71.2192C401.652 65.7513 401.652 58.5229 397.882 53.055L368.686 10.7082C365.699 6.37678 360.774 3.79031 355.513 3.79031H49.1112C43.85 3.79031 38.925 6.37679 35.9386 10.7082L6.74176 53.055Z" fill="url(#paint0_linear_12_4)" fill-opacity="0.5"/>
<path d="M361.157 7.1312H38.5413L42.6825 0.451782H361.157V7.1312Z" fill="#67CB60"/>
<defs>
<linearGradient id="paint0_linear_12_4" x1="202.312" y1="3.79031" x2="202.312" y2="120.484" gradientUnits="userSpaceOnUse">
<stop stop-color="white" stop-opacity="0.6"/>
<stop offset="1" stop-color="#999999" stop-opacity="0.3"/>
</linearGradient>
</defs>
</svg>
