<svg width="404" height="121" viewBox="0 0 404 121" fill="none" xmlns="http://www.w3.org/2000/svg">
<path d="M397.257 52.6346C400.999 58.089 400.999 65.2839 397.257 70.7383L368.203 113.085C365.219 117.434 360.284 120.033 355.01 120.033H48.6313C43.3701 120.033 38.4451 117.447 35.4587 113.115L6.26183 70.7685C2.49188 65.3007 2.49188 58.0723 6.26183 52.6044L35.4587 10.2576C38.4451 5.92612 43.3701 3.33965 48.6313 3.33965H355.01C360.284 3.33965 365.219 5.93882 368.203 10.2878L397.257 52.6346Z" fill="white" fill-opacity="0.29"/>
<path d="M397.257 52.6346C400.999 58.089 400.999 65.2839 397.257 70.7383L368.203 113.085C365.219 117.434 360.284 120.033 355.01 120.033H48.6313C43.3701 120.033 38.4451 117.447 35.4587 113.115L6.26183 70.7685C2.49188 65.3007 2.49188 58.0723 6.26183 52.6044L35.4587 10.2576C38.4451 5.92612 43.3701 3.33965 48.6313 3.33965H355.01C360.284 3.33965 365.219 5.93882 368.203 10.2878L397.257 52.6346Z" fill="url(#paint0_linear_12_18)" fill-opacity="0.5"/>
<path d="M6.89988 57.561L1.37836 53.8284L38.4515 0H361.265L365.603 6.67944H42.0011L6.89988 57.561Z" fill="#ACEDBB"/>
<defs>
<linearGradient id="paint0_linear_12_18" x1="201.734" y1="3.33965" x2="201.734" y2="120.033" gradientUnits="userSpaceOnUse">
<stop stop-color="white" stop-opacity="0.6"/>
<stop offset="1" stop-color="#999999" stop-opacity="0.3"/>
</linearGradient>
</defs>
</svg>
