<svg width="405" height="122" viewBox="0 0 405 122" fill="none" xmlns="http://www.w3.org/2000/svg">
<path d="M398.39 53.7722C402.146 59.2384 402.14 66.4553 398.375 71.9157L369.168 114.278C366.182 118.609 361.257 121.196 355.995 121.196H49.5937C44.3325 121.196 39.4075 118.609 36.4211 114.278L7.21377 71.9157C3.44904 66.4553 3.44338 59.2384 7.19953 53.7722L36.4229 11.2442C39.4076 6.9007 44.3396 4.30554 49.6097 4.30554H355.979C361.249 4.30554 366.182 6.9007 369.166 11.2442L398.39 53.7722Z" fill="white" fill-opacity="0.29"/>
<path d="M398.39 53.7722C402.146 59.2384 402.14 66.4553 398.375 71.9157L369.168 114.278C366.182 118.609 361.257 121.196 355.995 121.196H49.5937C44.3325 121.196 39.4075 118.609 36.4211 114.278L7.21377 71.9157C3.44904 66.4553 3.44338 59.2384 7.19953 53.7722L36.4229 11.2442C39.4076 6.9007 44.3396 4.30554 49.6097 4.30554H355.979C361.249 4.30554 366.182 6.9007 369.166 11.2442L398.39 53.7722Z" fill="url(#paint0_linear_12_32)" fill-opacity="0.5"/>
<path d="M366.569 7.64634H54.7987V0.966919H362.625L366.569 7.64634Z" fill="#7ED77E"/>
<defs>
<linearGradient id="paint0_linear_12_32" x1="202.795" y1="4.30554" x2="202.795" y2="121.196" gradientUnits="userSpaceOnUse">
<stop stop-color="white" stop-opacity="0.6"/>
<stop offset="1" stop-color="#999999" stop-opacity="0.3"/>
</linearGradient>
</defs>
</svg>
