<svg width="404" height="121" viewBox="0 0 404 121" fill="none" xmlns="http://www.w3.org/2000/svg">
<path d="M397.417 52.7914C401.178 58.2652 401.167 65.4937 397.388 70.9557L368.207 113.137C365.219 117.456 360.301 120.034 355.049 120.034H48.6152C43.3629 120.034 38.4451 117.456 35.457 113.137L6.2762 70.9557C2.4976 65.4937 2.48623 58.2652 6.24762 52.7914L35.4605 10.2787C38.4452 5.93527 43.3772 3.34012 48.6473 3.34012H355.017C360.287 3.34012 365.219 5.93528 368.204 10.2787L397.417 52.7914Z" fill="white" fill-opacity="0.29"/>
<path d="M397.417 52.7914C401.178 58.2652 401.167 65.4937 397.388 70.9557L368.207 113.137C365.219 117.456 360.301 120.034 355.049 120.034H48.6152C43.3629 120.034 38.4451 117.456 35.457 113.137L6.2762 70.9557C2.4976 65.4937 2.48623 58.2652 6.24762 52.7914L35.4605 10.2787C38.4452 5.93527 43.3772 3.34012 48.6473 3.34012H355.017C360.287 3.34012 365.219 5.93528 368.204 10.2787L397.417 52.7914Z" fill="url(#paint0_linear_12_25)" fill-opacity="0.5"/>
<path d="M365.804 6.67942H40.2301V0H361.466L365.804 6.67942Z" fill="#95E29C"/>
<defs>
<linearGradient id="paint0_linear_12_25" x1="201.832" y1="3.34012" x2="201.832" y2="120.034" gradientUnits="userSpaceOnUse">
<stop stop-color="white" stop-opacity="0.6"/>
<stop offset="1" stop-color="#999999" stop-opacity="0.3"/>
</linearGradient>
</defs>
</svg>
