<svg width="404" height="121" viewBox="0 0 404 121" fill="none" xmlns="http://www.w3.org/2000/svg">
<path d="M6.24548 53.2055C2.4841 58.6794 2.49548 65.9078 6.27407 71.3698L35.4548 113.551C38.443 117.87 43.3607 120.448 48.613 120.448H355.047C360.299 120.448 365.217 117.87 368.205 113.551L397.386 71.3698C401.165 65.9078 401.176 58.6794 397.415 53.2055L368.202 10.6929C365.217 6.3494 360.285 3.75424 355.015 3.75424H48.6452C43.3751 3.75424 38.443 6.3494 35.4583 10.6929L6.24548 53.2055Z" fill="white" fill-opacity="0.29"/>
<path d="M6.24548 53.2055C2.4841 58.6794 2.49548 65.9078 6.27407 71.3698L35.4548 113.551C38.443 117.87 43.3607 120.448 48.613 120.448H355.047C360.299 120.448 365.217 117.87 368.205 113.551L397.386 71.3698C401.165 65.9078 401.176 58.6794 397.415 53.2055L368.202 10.6929C365.217 6.3494 360.285 3.75424 355.015 3.75424H48.6452C43.3751 3.75424 38.443 6.3494 35.4583 10.6929L6.24548 53.2055Z" fill="url(#paint0_linear_12_11)" fill-opacity="0.5"/>
<path d="M369.154 7.09354H38.059L41.8058 0.414124H369.154V7.09354Z" fill="#50C042"/>
<defs>
<linearGradient id="paint0_linear_12_11" x1="201.83" y1="3.75424" x2="201.83" y2="120.448" gradientUnits="userSpaceOnUse">
<stop stop-color="white" stop-opacity="0.6"/>
<stop offset="1" stop-color="#999999" stop-opacity="0.3"/>
</linearGradient>
</defs>
</svg>
