<svg width="100" height="101" viewBox="0 0 100 101" fill="none" xmlns="http://www.w3.org/2000/svg">
<g id="firebase">
<g id="firebase_2">
<path id="Vector" d="M61.4052 36.9978L51.4044 46.3094L42.1211 27.5767L46.9168 16.8057C48.1289 14.6571 50.1112 14.6287 51.3233 16.8057L61.4052 36.9978Z" fill="#FFA000"/>
<path id="Vector_2" d="M51.4088 46.3029L14 81.097L42.1256 27.5742L51.4088 46.3029Z" fill="#F57F17"/>
<path id="Vector_3" d="M72.3712 22.7546C74.163 21.0479 76.0075 21.6235 76.4736 24.0477L86.1988 80.6272L53.9424 99.9923C52.8114 100.625 49.8116 100.872 49.8116 100.872C49.8116 100.872 47.0833 100.54 46.0375 99.964L14 81.0974L72.3712 22.7546Z" fill="#FFCA28"/>
<path id="Vector_4" d="M42.1255 27.5754L14 81.0982L26.5345 2.8673C27.0047 0.443104 28.379 0.195821 29.6194 2.34435L42.1255 27.5754Z" fill="#FFA000"/>
</g>
</g>
</svg>
