<svg width="69" height="47" viewBox="0 0 69 47" fill="none" xmlns="http://www.w3.org/2000/svg">
<path d="M2.19196 32.2632H37.3084C37.8332 32.2632 38.2627 31.8338 38.2627 31.3091V2.86275C38.2627 1.28164 36.981 0 35.3999 0H4.10057C2.51947 0 1.23783 1.28164 1.23783 2.86275V31.3089C1.23772 31.8338 1.66718 32.2632 2.19196 32.2632ZM9.26814 13.0945C9.26814 12.4404 9.79836 11.91 10.4526 11.91H19.8208V8.57206C19.8208 7.51684 21.0969 6.9884 21.8429 7.73484L29.9156 15.8114C30.3779 16.2739 30.3779 17.0236 29.9156 17.486L21.8429 25.5612C21.0968 26.3076 19.8208 25.7792 19.8208 24.7239V21.3851H10.4525C9.79836 21.3851 9.26803 20.8548 9.26803 20.2007L9.26814 13.0945ZM13.3758 39.9257H1.75308C1.22818 39.9257 0.798828 39.4965 0.798828 38.9716V36.0707C0.798828 35.5458 1.22818 35.1163 1.75308 35.1163H16.0096C14.6164 36.3283 13.6526 38.0173 13.3758 39.9257ZM67.6727 35.1165H65.3539V22.1481C65.3539 20.6309 64.8959 19.1423 64.0466 17.8827L58.2353 9.27528C56.8133 7.17593 54.4468 5.91634 51.9085 5.91634H42.9005C41.8412 5.91634 40.9919 6.77517 40.9919 7.82484V35.1165H26.2391C27.6419 36.3283 28.6057 38.0173 28.8824 39.9259H44.4367C44.9902 36.1375 48.2537 33.208 52.1948 33.208C56.1359 33.208 59.3898 36.1376 59.9433 39.9259H67.6727C68.1976 39.9259 68.627 39.4965 68.627 38.9716V36.0707C68.627 35.5459 68.1976 35.1165 67.6727 35.1165ZM58.1683 19.6002H46.2785C45.7537 19.6002 45.3242 19.1803 45.3242 18.646V12.0521C45.3242 11.5273 45.7537 11.0979 46.2785 11.0979H53.5213C53.8362 11.0979 54.1225 11.2505 54.3038 11.4986L58.951 18.1021C59.3897 18.732 58.9413 19.6002 58.1683 19.6002ZM21.1244 35.1165C17.8514 35.1165 15.1889 37.7787 15.1889 41.0615C15.1889 44.3344 17.8513 46.9968 21.1244 46.9968C24.407 46.9968 27.0598 44.3345 27.0598 41.0615C27.0597 37.7788 24.407 35.1165 21.1244 35.1165ZM21.1244 44.0292C19.483 44.0292 18.1567 42.6931 18.1567 41.0615C18.1567 39.42 19.4831 38.0938 21.1244 38.0938C22.7657 38.0938 24.0921 39.4201 24.0921 41.0615C24.0921 42.6931 22.7656 44.0292 21.1244 44.0292ZM52.1947 35.1165C48.9121 35.1165 46.2592 37.7787 46.2592 41.0615C46.2592 44.3344 48.9121 46.9968 52.1947 46.9968C55.4677 46.9968 58.1301 44.3345 58.1301 41.0615C58.1302 37.7788 55.468 35.1165 52.1947 35.1165ZM52.1947 44.0292C50.5533 44.0292 49.227 42.6931 49.227 41.0615C49.227 39.42 50.5534 38.0938 52.1947 38.0938C53.836 38.0938 55.1624 39.4201 55.1624 41.0615C55.1625 42.6931 53.8361 44.0292 52.1947 44.0292Z" fill="white"/>
</svg>
