<svg width="48" height="47" viewBox="0 0 48 47" fill="none" xmlns="http://www.w3.org/2000/svg">
<path d="M11.3841 21.7812H7.25323C6.68409 21.7812 6.2207 22.2446 6.2207 22.8138V25.5677C6.2207 26.1368 6.68409 26.6002 7.25323 26.6002H11.3841C11.9532 26.6002 12.4166 26.1368 12.4166 25.5677V22.8138C12.4166 22.2446 11.9532 21.7812 11.3841 21.7812ZM8.97388 25.9121H7.25323C7.16195 25.9119 7.07446 25.8756 7.00991 25.811C6.94536 25.7465 6.90901 25.659 6.90881 25.5677V22.8138C6.90901 22.7225 6.94536 22.635 7.00991 22.5705C7.07446 22.5059 7.16195 22.4696 7.25323 22.4694H8.97461L8.97388 25.9121ZM11.7278 25.5684C11.7276 25.6597 11.6912 25.7472 11.6267 25.8118C11.5621 25.8763 11.4746 25.9127 11.3834 25.9128H9.66198V22.4701H11.3834C11.4746 22.4703 11.5621 22.5066 11.6267 22.5712C11.6912 22.6357 11.7276 22.7232 11.7278 22.8145V25.5684Z" fill="white"/>
<path d="M11.3841 29.0078H7.25323C6.68409 29.0078 6.2207 29.4712 6.2207 30.0403V32.7942C6.2207 33.3634 6.68409 33.8268 7.25323 33.8268H11.3841C11.9532 33.8268 12.4166 33.3634 12.4166 32.7942V30.0403C12.4166 29.4712 11.9532 29.0078 11.3841 29.0078ZM8.97388 33.1387H7.25323C7.16195 33.1385 7.07446 33.1021 7.00991 33.0376C6.94536 32.973 6.90901 32.8855 6.90881 32.7942V30.0403C6.90901 29.9491 6.94536 29.8616 7.00991 29.797C7.07446 29.7325 7.16195 29.6961 7.25323 29.6959H8.97461L8.97388 33.1387ZM11.7278 32.7942C11.7276 32.8855 11.6912 32.973 11.6267 33.0376C11.5621 33.1021 11.4746 33.1385 11.3834 33.1387H9.66198V29.6959H11.3834C11.4746 29.6961 11.5621 29.7325 11.6267 29.797C11.6912 29.8616 11.7276 29.9491 11.7278 30.0403V32.7942Z" fill="white"/>
<path d="M11.3841 35.8906H7.25323C6.68409 35.8906 6.2207 36.354 6.2207 36.9232V39.6771C6.2207 40.2462 6.68409 40.7096 7.25323 40.7096H11.3841C11.9532 40.7096 12.4166 40.2462 12.4166 39.6771V36.9232C12.4166 36.354 11.9532 35.8906 11.3841 35.8906ZM8.97388 40.0215H7.25323C7.16195 40.0213 7.07446 39.9849 7.00991 39.9204C6.94536 39.8558 6.90901 39.7683 6.90881 39.6771V36.9232C6.90901 36.8319 6.94536 36.7444 7.00991 36.6798C7.07446 36.6153 7.16195 36.5789 7.25323 36.5787H8.97461L8.97388 40.0215ZM11.7278 39.6771C11.7276 39.7683 11.6912 39.8558 11.6267 39.9204C11.5621 39.9849 11.4746 40.0213 11.3834 40.0215H9.66198V36.5787H11.3834C11.4746 36.5789 11.5621 36.6153 11.6267 36.6798C11.6912 36.7444 11.7276 36.8319 11.7278 36.9232V39.6771Z" fill="white"/>
<path d="M36.5137 22.8138V25.5677C36.5137 26.1368 36.9771 26.6002 37.5462 26.6002H41.6771C42.2462 26.6002 42.7096 26.1368 42.7096 25.5677V22.8138C42.7096 22.2446 42.2462 21.7812 41.6771 21.7812H37.5462C37.2724 21.7814 37.0099 21.8903 36.8163 22.0839C36.6227 22.2775 36.5139 22.54 36.5137 22.8138ZM39.9564 22.4694H41.6778C41.7691 22.4696 41.8566 22.5059 41.9211 22.5705C41.9857 22.635 42.022 22.7225 42.0222 22.8138V25.5677C42.022 25.659 41.9857 25.7465 41.9211 25.811C41.8566 25.8756 41.7691 25.9119 41.6778 25.9121H39.9564V22.4694ZM39.2676 25.9114H37.5462C37.4549 25.9112 37.3674 25.8748 37.3029 25.8103C37.2383 25.7457 37.202 25.6582 37.2018 25.567V22.813C37.202 22.7218 37.2383 22.6343 37.3029 22.5697C37.3674 22.5052 37.4549 22.4688 37.5462 22.4686H39.2676V25.9114Z" fill="white"/>
<path d="M41.6771 29.0078H37.5462C36.9771 29.0078 36.5137 29.4712 36.5137 30.0403V32.7942C36.5137 33.3634 36.9771 33.8268 37.5462 33.8268H41.6771C42.2462 33.8268 42.7096 33.3634 42.7096 32.7942V30.0403C42.7096 29.4712 42.2462 29.0078 41.6771 29.0078ZM39.2668 33.1387H37.5455C37.4542 33.1385 37.3667 33.1021 37.3021 33.0376C37.2376 32.973 37.2012 32.8855 37.201 32.7942V30.0403C37.2012 29.9491 37.2376 29.8616 37.3021 29.797C37.3667 29.7325 37.4542 29.6961 37.5455 29.6959H39.2668V33.1387ZM42.0207 32.7942C42.0206 32.8855 41.9842 32.973 41.9197 33.0376C41.8551 33.1021 41.7676 33.1385 41.6763 33.1387H39.955V29.6959H41.6763C41.7676 29.6961 41.8551 29.7325 41.9197 29.797C41.9842 29.8616 42.0206 29.9491 42.0207 30.0403V32.7942Z" fill="white"/>
<path d="M41.6771 35.8906H37.5462C36.9771 35.8906 36.5137 36.354 36.5137 36.9232V39.6771C36.5137 40.2462 36.9771 40.7096 37.5462 40.7096H41.6771C42.2462 40.7096 42.7096 40.2462 42.7096 39.6771V36.9232C42.7096 36.354 42.2462 35.8906 41.6771 35.8906ZM39.2668 40.0215H37.5455C37.4542 40.0213 37.3667 39.9849 37.3021 39.9204C37.2376 39.8558 37.2012 39.7683 37.201 39.6771V36.9232C37.2012 36.8319 37.2376 36.7444 37.3021 36.6798C37.3667 36.6153 37.4542 36.5789 37.5455 36.5787H39.2668V40.0215ZM42.0207 39.6771C42.0206 39.7683 41.9842 39.8558 41.9197 39.9204C41.8551 39.9849 41.7676 40.0213 41.6763 40.0215H39.955V36.5787H41.6763C41.7676 36.5789 41.8551 36.6153 41.9197 36.6798C41.9842 36.7444 42.0206 36.8319 42.0207 36.9232V39.6771Z" fill="white"/>
<path d="M17.4868 26.6908C17.0998 26.5601 16.9287 26.4852 16.9287 26.3148C16.9287 26.1768 17.0712 26.0578 17.3671 26.0578C17.6601 26.0578 17.8746 26.1327 17.9943 26.1841L18.1463 25.6972C17.9017 25.6036 17.6414 25.558 17.3796 25.5628C16.6695 25.5628 16.242 25.9117 16.242 26.3663C16.242 26.7533 16.5674 26.9993 17.0675 27.1535C17.4281 27.2673 17.5713 27.3635 17.5713 27.5295C17.5713 27.7036 17.406 27.8181 17.0939 27.8181C16.8046 27.8181 16.524 27.7359 16.3412 27.6521L16.2031 28.1508C16.372 28.2338 16.7113 28.3131 17.055 28.3131C17.8797 28.3131 18.2675 27.9334 18.2675 27.4862C18.2675 27.1102 18.0178 26.8649 17.4868 26.6908Z" fill="white"/>
<path d="M20.2615 26.0611C20.5017 26.0611 20.6941 26.1074 20.8314 26.1595L20.9695 25.6815C20.8498 25.6257 20.5825 25.5625 20.23 25.5625C19.3201 25.5625 18.5879 26.0685 18.5879 26.9791C18.5879 27.7392 19.1233 28.312 20.1631 28.312C20.5288 28.312 20.8101 28.2533 20.935 28.1974L20.8314 27.7267C20.6482 27.7843 20.4573 27.8137 20.2652 27.8141C19.6593 27.8141 19.3024 27.477 19.3024 26.9431C19.3032 26.3498 19.7225 26.0611 20.2615 26.0611Z" fill="white"/>
<path d="M23.1823 26.6346H22.0624V25.6094H21.3809V28.2759H22.0624V27.1596H23.1823V28.2759H23.8601V25.6094H23.1823V26.6346Z" fill="white"/>
<path d="M25.7785 25.5625C24.8914 25.5625 24.3164 26.1595 24.3164 26.9585C24.3164 27.7186 24.8378 28.3164 25.7293 28.3164C26.6084 28.3164 27.2054 27.7855 27.2054 26.9123C27.2047 26.175 26.7017 25.5625 25.7785 25.5625ZM25.7661 27.8376C25.3107 27.8376 25.0346 27.4689 25.0346 26.9468C25.0346 26.4283 25.3019 26.0406 25.7609 26.0406C26.2295 26.0406 26.488 26.4526 26.488 26.9314C26.488 27.4498 26.2243 27.8376 25.7661 27.8376Z" fill="white"/>
<path d="M28.9765 25.5625C28.0887 25.5625 27.5137 26.1595 27.5137 26.9585C27.5137 27.7186 28.0351 28.3164 28.9266 28.3164C29.8064 28.3164 30.4034 27.7855 30.4034 26.9123C30.4027 26.175 29.8982 25.5625 28.9765 25.5625ZM28.9626 27.8376C28.5073 27.8376 28.2312 27.4689 28.2312 26.9468C28.2312 26.4283 28.4985 26.0406 28.9575 26.0406C29.4267 26.0406 29.6845 26.4526 29.6845 26.9314C29.6845 27.4498 29.4216 27.8376 28.9626 27.8376Z" fill="white"/>
<path d="M31.5318 25.6094H30.8496V28.2759H32.7274V27.7692H31.5318V25.6094Z" fill="white"/>
<path d="M29.2839 19.3666C29.2839 18.7336 29.1593 18.1069 28.9171 17.5222C28.6748 16.9374 28.3198 16.4061 27.8723 15.9585C27.4247 15.511 26.8934 15.156 26.3087 14.9138C25.7239 14.6715 25.0972 14.5469 24.4642 14.5469C23.8313 14.5469 23.2046 14.6715 22.6198 14.9138C22.0351 15.156 21.5037 15.511 21.0562 15.9585C20.6086 16.4061 20.2536 16.9374 20.0114 17.5222C19.7692 18.1069 19.6445 18.7336 19.6445 19.3666C19.6445 19.9995 19.7692 20.6262 20.0114 21.211C20.2536 21.7958 20.6086 22.3271 21.0562 22.7746C21.5037 23.2222 22.0351 23.5772 22.6198 23.8194C23.2046 24.0616 23.8313 24.1863 24.4642 24.1863C25.0972 24.1863 25.7239 24.0616 26.3087 23.8194C26.8934 23.5772 27.4247 23.2222 27.8723 22.7746C28.3198 22.3271 28.6748 21.7958 28.9171 21.211C29.1593 20.6262 29.2839 19.9995 29.2839 19.3666ZM21.0222 19.3666C21.0223 18.9144 21.1115 18.4666 21.2846 18.0489C21.4578 17.6311 21.7115 17.2516 22.0313 16.9319C22.3511 16.6122 22.7308 16.3586 23.1486 16.1857C23.5664 16.0127 24.0142 15.9237 24.4664 15.9238C24.9186 15.9239 25.3664 16.0131 25.7841 16.1862C26.2019 16.3594 26.5814 16.6131 26.9011 16.9329C27.2208 17.2527 27.4744 17.6324 27.6473 18.0502C27.8203 18.468 27.9093 18.9158 27.9092 19.368C27.909 20.2813 27.546 21.1571 26.9001 21.8027C26.2542 22.4484 25.3782 22.811 24.465 22.8108C23.5517 22.8106 22.6759 22.4476 22.0303 21.8017C21.3846 21.1558 21.022 20.2798 21.0222 19.3666Z" fill="white"/>
<path d="M25.1538 20.0599V17.306C25.1538 16.9271 24.8439 16.6172 24.465 16.6172C24.086 16.6172 23.7761 16.9271 23.7761 17.306V19.3718H23.0873C22.7083 19.3718 22.3984 19.6817 22.3984 20.0607C22.3984 20.4396 22.7083 20.7495 23.0873 20.7495H24.465C24.6475 20.7486 24.8223 20.6756 24.9512 20.5464C25.0802 20.4173 25.153 20.2425 25.1538 20.0599Z" fill="white"/>
<path d="M45.808 42.7773H45.1191V20.7461H45.5847C46.3595 20.7461 46.7083 20.1916 46.3624 19.5145L44.1028 15.0929C43.7561 14.4158 42.8389 13.8613 42.0649 13.8613H30.4184L25.153 9.59902V7.9173C27.9069 10.1145 30.6608 3.18352 33.4147 5.3815C30.6608 1.49372 27.9069 6.73348 25.153 2.8457V2.15759C25.1537 1.77866 24.8438 1.46875 24.4648 1.46875C24.0859 1.46875 23.776 1.77866 23.776 2.15759V9.59975L18.5105 13.8621H6.86555C6.09078 13.8621 5.17355 14.4165 4.82766 15.0936L2.56798 19.5153C2.22136 20.1924 2.57092 20.7468 3.34569 20.7468H3.81128V42.7781H3.12244C2.93999 42.7785 2.76512 42.8511 2.63604 42.98C2.50696 43.1089 2.43418 43.2837 2.43359 43.4662V44.8431C2.43418 45.0256 2.50696 45.2004 2.63604 45.3293C2.76512 45.4583 2.93999 45.5309 3.12244 45.5312H45.808C45.9903 45.5307 46.165 45.458 46.2939 45.3291C46.4228 45.2001 46.4955 45.0255 46.4961 44.8431V43.4662C46.4957 43.2837 46.4231 43.1089 46.2942 42.9798C46.1652 42.8507 45.9904 42.7779 45.808 42.7773ZM13.4492 42.7773H5.1875V20.7461H11.7506C11.7638 20.8658 11.7873 20.9796 11.824 21.0832C12.004 21.5862 12.5268 22.123 13.45 22.123L13.4492 42.7773ZM31.8086 44.6823H17.1211V43.5807H31.8086V44.6823ZM20.334 42.7773V34.5156H24.1204V42.7773H20.334ZM24.8093 42.7773V34.5156H28.5957V42.7773H24.8093ZM34.1035 42.7773H29.9727V34.5156H31.3496V33.1343C31.3496 33.1343 26.618 30.2753 25.117 29.2068C24.9245 29.0768 24.6975 29.0074 24.4652 29.0074C24.2329 29.0074 24.006 29.0768 23.8135 29.2068C22.3124 30.2753 17.5808 33.1343 17.5808 33.1343V34.5156H18.957V42.7773H14.8262V20.7461H13.4492C13.0703 20.7461 13.0005 20.5485 13.2921 20.3084L23.9332 11.5444C24.0793 11.4247 24.2724 11.3645 24.4648 11.3645C24.6572 11.3645 24.8497 11.4247 24.9965 11.5444L35.6376 20.3084C35.9292 20.5485 35.8594 20.7461 35.4805 20.7461H34.1035V42.7773ZM43.7422 42.7773H35.4805V22.123C36.4036 22.123 36.9265 21.5862 37.1064 21.0832C37.1431 20.9796 37.1666 20.8658 37.1798 20.7461H43.7429L43.7422 42.7773Z" fill="white"/>
<path d="M22.4414 38.3047H23.4313V38.8048H22.4414V38.3047Z" fill="white"/>
<path d="M25.498 38.3047H26.488V38.8048H25.498V38.3047Z" fill="white"/>
</svg>
