<svg width="60" height="44" viewBox="0 0 60 44" fill="none" xmlns="http://www.w3.org/2000/svg">
<path d="M59.5182 0.986896C58.84 -0.0313498 57.4645 -0.306301 56.4464 0.372205L50.7282 4.18397C50.1122 4.59494 49.7418 5.28657 49.7418 6.02731V37.8236H2.29218C1.21024 37.8236 0.330078 38.7038 0.330078 39.7859V41.2416C0.330078 42.3236 1.21024 43.2038 2.29218 43.2038H4.75957C4.94992 43.2038 5.119 43.0822 5.17954 42.9018C5.78426 41.1013 7.46424 39.8914 9.36034 39.8914C11.2566 39.8914 12.9367 41.1014 13.541 42.9018C13.6014 43.0822 13.7705 43.2038 13.961 43.2038H40.5439C40.7341 43.2038 40.9035 43.0822 40.9637 42.9018C41.5683 41.1013 43.2486 39.8914 45.1448 39.8914C47.0405 39.8914 48.7209 41.1014 49.3256 42.9018C49.3858 43.0822 49.555 43.2038 49.7453 43.2038H52.2127C53.2948 43.2038 54.1754 42.3237 54.1754 41.2416L54.1726 7.21318L58.9039 4.05901C59.9221 3.38026 60.1972 2.0049 59.5182 0.986896Z" fill="white"/>
<path d="M39.8486 0.5625H36.789C36.6142 0.5625 36.4722 0.704109 36.4722 0.879023L36.4724 3.2764C36.4707 3.27896 36.4601 3.28831 36.4373 3.28831H34.3473C34.3233 3.28831 34.3122 3.27896 34.3112 3.27604V0.879023C34.3112 0.704109 34.1704 0.5625 33.9958 0.5625H30.9345C30.0275 0.5625 29.2891 1.30105 29.2891 2.20856V11.1225C29.2891 12.0303 30.0275 12.7688 30.9345 12.7688H39.8486C40.7563 12.7688 41.4952 12.0303 41.4952 11.1225V2.20856C41.4952 1.30105 40.7563 0.5625 39.8486 0.5625Z" fill="white"/>
<path d="M42.1483 16.5312H36.7474V19.2477C36.7474 19.5431 36.5078 19.7825 36.2125 19.7825H34.5723C34.2767 19.7825 34.0375 19.543 34.0375 19.2477V16.5312H28.6357C27.5513 16.5312 26.6699 17.4131 26.6699 18.4974V32.0102C26.6699 33.0944 27.5513 33.976 28.6357 33.976H42.1484C43.2325 33.976 44.115 33.0944 44.115 32.0102V18.4974C44.1148 17.4131 43.2324 16.5312 42.1483 16.5312Z" fill="white"/>
<path d="M20.6229 16.5312H15.222V19.2477C15.222 19.5431 14.9824 19.7825 14.6871 19.7825H13.0469C12.7513 19.7825 12.5121 19.543 12.5121 19.2477V16.5312H7.11028C6.02591 16.5312 5.14453 17.4131 5.14453 18.4974V32.0102C5.14453 33.0944 6.02591 33.976 7.11028 33.976H20.623C21.7072 33.976 22.5896 33.0944 22.5896 32.0102V18.4974C22.5895 17.4131 21.707 16.5312 20.6229 16.5312Z" fill="white"/>
</svg>
