<svg width="68" height="47" viewBox="0 0 68 47" fill="none" xmlns="http://www.w3.org/2000/svg">
<path d="M18.6486 12.2666H53.5488V10.085C53.5488 8.28444 52.0741 6.81254 50.2764 6.81254H35.8719V4.90723C35.8719 2.19619 33.6669 0 30.9646 0H22.5872C21.2782 0 20.0478 0.511895 19.1169 1.44277C18.186 2.37365 17.677 3.59527 17.677 4.90723V6.81538H3.27243C1.4719 6.81254 0 8.28431 0 10.085V39.3102L11.0013 17.0227C12.3364 14.3085 15.6292 12.2666 18.6486 12.2666ZM20.9495 4.90723C20.9495 4.47382 21.127 4.0636 21.4324 3.75533C21.7379 3.44113 22.1509 3.2696 22.5843 3.2696H30.9618C31.8665 3.2696 32.5966 4.00265 32.5966 4.90723V6.81538H20.9497V4.90723H20.9495Z" fill="white"/>
<path d="M65.6577 15.5312H18.6507C16.853 15.5312 14.7267 16.8518 13.9384 18.4633L1.29662 44.0728C0.499645 45.6814 1.32278 47.002 3.12048 47.002H50.1274C51.9251 47.002 54.0544 45.6842 54.8456 44.0728L67.4845 18.4633C68.2785 16.8518 67.4612 15.5312 65.6577 15.5312Z" fill="white"/>
</svg>
