<svg width="47" height="47" viewBox="0 0 47 47" fill="none" xmlns="http://www.w3.org/2000/svg">
<path d="M8.8125 2.9375L0 11.75V14.6875C0 14.6875 5.875 17.625 11.75 17.625C17.625 17.625 23.5 14.6875 23.5 14.6875C23.5 14.6875 29.375 17.625 35.25 17.625C41.125 17.625 47 14.6875 47 14.6875V11.75L38.1875 2.9375H8.8125Z" fill="white"/>
<path fill-rule="evenodd" clip-rule="evenodd" d="M2.9375 44.0633V22.087C5.33659 22.8092 8.46493 23.5008 11.75 23.5008C15.5761 23.5008 19.1896 22.5627 21.686 21.7306C22.3521 21.5085 22.9614 21.2863 23.5 21.0781C24.0386 21.2863 24.6479 21.5085 25.314 21.7306C27.8104 22.5627 31.4239 23.5008 35.25 23.5008C38.535 23.5008 41.6634 22.8092 44.0625 22.087V44.0633H20.5625V29.3758H11.75V44.0633H2.9375ZM35.25 29.3758H29.375V38.1883H35.25V29.3758Z" fill="white"/>
</svg>
