<svg width="46" height="46" viewBox="0 0 46 46" fill="none" xmlns="http://www.w3.org/2000/svg">
<path fill-rule="evenodd" clip-rule="evenodd" d="M12.0752 0.891986C15.0622 0.22816 18.6859 0 23 0C27.3141 0 30.9378 0.22816 33.9248 0.891986C36.938 1.56163 39.4422 2.7048 41.3687 4.63123C43.2952 6.55767 44.4383 9.06205 45.1081 12.0752C45.7718 15.0622 46 18.6859 46 23C46 27.3141 45.7718 30.9378 45.1081 33.9248C44.4383 36.938 43.2952 39.4422 41.3687 41.3687C39.4422 43.2952 36.938 44.4383 33.9248 45.1081C30.9378 45.7718 27.3141 46 23 46C18.6859 46 15.0622 45.7718 12.0752 45.1081C9.06205 44.4383 6.55767 43.2952 4.63123 41.3687C2.7048 39.4422 1.56163 36.938 0.891986 33.9248C0.22816 30.9378 0 27.3141 0 23C0 18.6859 0.22816 15.0622 0.891986 12.0752C1.56163 9.06205 2.7048 6.55767 4.63123 4.63123C6.55767 2.7048 9.06205 1.56163 12.0752 0.891986ZM11.5 23C11.5 21.7297 12.5298 20.7 13.8 20.7H13.823C15.0932 20.7 16.123 21.7297 16.123 23C16.123 24.2703 15.0932 25.3 13.823 25.3H13.8C12.5298 25.3 11.5 24.2703 11.5 23ZM20.7 23C20.7 21.7297 21.7297 20.7 23 20.7H23.023C24.2933 20.7 25.323 21.7297 25.323 23C25.323 24.2703 24.2933 25.3 23.023 25.3H23C21.7297 25.3 20.7 24.2703 20.7 23ZM32.2 20.7C30.9297 20.7 29.9 21.7297 29.9 23C29.9 24.2703 30.9297 25.3 32.2 25.3H32.223C33.4933 25.3 34.523 24.2703 34.523 23C34.523 21.7297 33.4933 20.7 32.223 20.7H32.2Z" fill="white"/>
</svg>
