<svg width="50" height="47" viewBox="0 0 50 47" fill="none" xmlns="http://www.w3.org/2000/svg">
<path d="M18.4926 27.1845C22.4397 27.1845 25.6395 23.9843 25.6395 20.0375C25.6395 16.0904 22.4401 12.8906 18.4926 12.8906C14.5451 12.8906 11.3457 16.0904 11.3457 20.0375C11.3457 23.9843 14.5455 27.1845 18.4926 27.1845ZM18.1473 20.5327C16.7786 20.0371 15.8923 19.4113 15.8923 18.1993C15.8923 17.0783 16.6743 16.2179 17.9907 15.9833V14.7057H19.0601V15.9182C19.8809 15.9442 20.4416 16.1396 20.8584 16.3482L20.5067 17.5475C20.1942 17.404 19.6204 17.1043 18.7336 17.1043C17.8212 17.1043 17.4956 17.5734 17.4956 18.0166C17.4956 18.5509 17.9643 18.8511 19.0725 19.2942C20.5327 19.8417 21.1849 20.5455 21.1849 21.7056C21.1849 22.8133 20.416 23.7912 18.9818 24.0258V25.3682H17.9128V24.1029C17.0915 24.0782 16.2703 23.8432 15.8007 23.5307L16.1532 22.305C16.6611 22.6047 17.3913 22.8785 18.1865 22.8785C19.0081 22.8785 19.5684 22.4745 19.5684 21.8491C19.568 21.2624 19.1116 20.8848 18.1473 20.5327Z" fill="white"/>
<path d="M29.1541 14.3402C33.114 14.3402 36.3238 11.13 36.3238 7.1701C36.3238 3.2102 33.114 0 29.1541 0C25.1942 0 21.9844 3.2102 21.9844 7.1701C21.9844 11.13 25.1942 14.3402 29.1541 14.3402ZM25.3884 7.47062H26.1209C26.1209 7.40508 26.1209 7.32675 26.1209 7.26121C26.1209 7.10416 26.1341 6.93472 26.1473 6.79085H25.3884V5.98001H26.2644C26.4218 5.18196 26.7747 4.50219 27.2455 4.00546C27.9516 3.22099 28.9063 2.77621 30.07 2.77621C30.8545 2.77621 31.5087 2.97242 31.9403 3.18183L31.6134 4.39789C31.2737 4.21526 30.7378 4.04462 30.1487 4.04462C29.4942 4.04462 28.9187 4.28 28.4883 4.76395C28.213 5.05168 28.0167 5.48327 27.9124 5.98001H31.3388V6.79085H27.7554C27.7298 6.93472 27.7298 7.09137 27.7298 7.24842C27.7298 7.32675 27.7298 7.39229 27.7298 7.47102H31.3396V8.26827H27.8733C27.9652 8.83095 28.1614 9.24935 28.4367 9.55027C28.8803 10.0338 29.5085 10.256 30.1891 10.256C30.8297 10.256 31.4303 10.0338 31.7317 9.86438L32.0066 11.0409C31.575 11.3026 30.8421 11.5644 30.0053 11.5644C28.8152 11.5644 27.7434 11.0932 27.05 10.2172C26.6316 9.7333 26.3435 9.07911 26.226 8.26827H25.388L25.3884 7.47062Z" fill="white"/>
<path d="M43.4387 17.6507C46.8479 17.6507 49.6117 14.8869 49.6117 11.4777C49.6117 8.0685 46.8479 5.30469 43.4387 5.30469C40.0294 5.30469 37.2656 8.0685 37.2656 11.4777C37.2656 14.8869 40.0294 17.6507 43.4387 17.6507ZM42.0088 7.81834L42.9547 9.85643C43.1573 10.2728 43.2808 10.6221 43.4279 10.9822H43.4506C43.5861 10.6445 43.7316 10.2505 43.9238 9.83365L44.9037 7.81834H46.3671L44.3966 11.1173H45.7929V11.8042H44.0249V12.5699H45.7929V13.2569H44.0249V15.1371H42.7301V13.2569H40.9738V12.5699H42.7301V11.8042H40.9738V11.1173H42.3808L40.5122 7.81834H42.0088Z" fill="white"/>
<path d="M29.8984 22.9397C29.8984 26.4616 32.7538 29.317 36.2753 29.317C39.7976 29.317 42.6525 26.4616 42.6525 22.9397C42.6525 19.4174 39.7976 16.5625 36.2753 16.5625C32.753 16.5625 29.8984 19.4174 29.8984 22.9397ZM38.4968 19.3859L38.241 20.4676C38.0196 20.3394 37.6828 20.2347 37.2292 20.2347C36.3684 20.2347 36.0539 20.8161 36.0539 21.4911C36.0539 21.8863 36.1122 22.2008 36.1826 22.5377H37.8106V23.5264H36.31C36.322 23.8869 36.322 24.2357 36.2285 24.5614C36.1122 24.9571 35.8796 25.2943 35.554 25.5853V25.6084H38.8225V26.7833H33.7277V26.0037C34.4262 25.6788 35.0424 24.9798 35.0424 24.1546C35.0424 23.9336 35.0312 23.747 34.9961 23.5268H33.8332V22.5381H34.833C34.7747 22.2124 34.7167 21.8288 34.7167 21.4563C34.7167 20.0257 35.729 19.0953 37.1712 19.0953C37.7991 19.0953 38.2406 19.2348 38.4968 19.3859Z" fill="white"/>
<path d="M46.4863 31.323C45.6647 30.6688 44.0742 29.9047 42.2906 29.9047C40.782 29.9047 38.5957 30.4518 36.7386 33.0534C35.0682 35.1858 32.9745 36.049 31.2741 36.3759C31.4268 35.995 31.5259 35.5375 31.5287 34.8905C31.5439 31.2734 28.661 28.5544 24.6747 28.5364L10.4448 28.5488C9.10925 28.5488 7.79488 28.9428 6.68671 29.6562V27.8047H0.0449219V47.0023H6.68631V44.9626C6.93728 45.0869 7.28295 45.3375 7.28295 45.3375C8.42629 45.9681 10.1982 46.7422 12.0057 46.7422H25.0787C36.3398 46.7422 44.1145 40.4333 46.9343 37.3082C47.7767 36.3739 48.6495 35.4076 48.5492 34.1907C48.4605 33.1033 47.6604 32.2581 46.4863 31.323ZM4.46199 32.0459H2.14056V29.7245H4.46199V32.0459ZM45.2111 35.7533C42.5995 38.6482 35.4091 44.4212 25.0791 44.4212H12.0061C9.7958 44.4212 7.41563 42.6924 7.39405 42.6756C7.19024 42.5253 6.94767 42.4486 6.7031 42.4486C6.6979 42.4486 6.69231 42.4502 6.68631 42.4502V32.2206C6.94047 32.2254 7.19384 32.1522 7.40364 31.9928L7.6574 31.8014C8.44707 31.2015 9.43654 30.871 10.4392 30.871L24.6639 30.8582C26.9338 30.8682 29.2192 32.1714 29.2077 34.8817C29.2077 36.4466 28.1642 36.5269 28.1079 36.5409H17.6804C17.0394 36.5409 16.5199 37.0608 16.5199 37.7014C16.5199 38.342 17.0394 38.8612 17.6804 38.8612H28.7473L29.3639 38.8596C31.1011 38.8592 35.4762 38.4491 38.5845 34.4605C38.5945 34.4469 38.6057 34.4329 38.6149 34.4189C39.6483 32.9639 40.8847 32.2262 42.2898 32.2262C43.5586 32.2262 44.6436 32.8232 45.0393 33.1385C46.2022 34.0644 46.2345 34.3681 46.2353 34.3805C46.2401 34.6143 45.4932 35.4419 45.2111 35.7533Z" fill="white"/>
</svg>
