<svg width="48" height="48" viewBox="0 0 48 48" fill="none" xmlns="http://www.w3.org/2000/svg">
<path d="M24.75 3.75H23.25V5.25H24.75V3.75Z" fill="white"/>
<path d="M24 23.25C26.0767 23.25 28.1068 22.6342 29.8335 21.4804C31.5602 20.3267 32.906 18.6868 33.7007 16.7682C34.4955 14.8496 34.7034 12.7384 34.2982 10.7016C33.8931 8.66476 32.8931 6.79383 31.4246 5.32538C29.9562 3.85693 28.0852 2.8569 26.0484 2.45176C24.0116 2.04661 21.9004 2.25455 19.9818 3.04927C18.0632 3.84399 16.4233 5.1898 15.2696 6.91652C14.1158 8.64323 13.5 10.6733 13.5 12.75C13.5 15.5348 14.6062 18.2055 16.5754 20.1746C18.5445 22.1438 21.2152 23.25 24 23.25ZM24 3.75C26.2625 3.74214 28.445 4.58672 30.1128 6.11556C31.7807 7.64441 32.8115 9.74535 33 12H32.25V13.5H33C32.8287 15.6309 31.9045 17.6313 30.3929 19.1429C28.8813 20.6545 26.8809 21.5787 24.75 21.75V20.25H23.25V21.75C21.1258 21.5703 19.1343 20.6423 17.6304 19.1315C16.1264 17.6207 15.2076 15.625 15.0375 13.5H15.75V12H15.0375C15.2255 9.7518 16.251 7.6562 17.9109 6.12828C19.5708 4.60036 21.744 3.75156 24 3.75Z" fill="white"/>
<path d="M25.5 13.5H28.5V12H26.1375C26.0361 11.6735 25.8568 11.3766 25.6151 11.1349C25.3734 10.8932 25.0765 10.7139 24.75 10.6125V6.75H23.25V13.5H25.5Z" fill="white"/>
<path d="M36 24.75H12C6.6225 24.75 2.25 28.8375 2.25 33.855V45.75H45.75V33.855C45.75 28.8375 41.3775 24.75 36 24.75ZM26.9325 26.25L26.5275 30.75H21.4725L21.0675 26.25H26.9325ZM27 38.58L24 41.0325L21 38.58L21.48 32.25H26.52L27 38.58ZM44.25 44.25H3.75V33.855C3.75 29.6625 7.4475 26.25 12 26.25H19.5675L20.0325 31.5L19.5 39.2475L24 42.9975L28.5 39.2475L27.9675 31.5L28.4325 26.25H36C40.5525 26.25 44.25 29.6625 44.25 33.855V44.25Z" fill="white"/>
</svg>
