<svg width="50" height="49" viewBox="0 0 50 49" fill="none" xmlns="http://www.w3.org/2000/svg">
<g clip-path="url(#clip0_448_70364)">
<path d="M6.08203 38.7969C8.36093 42.3877 11.6511 45.2732 15.5524 47.0524C14.5513 44.6163 13.7547 41.824 13.1821 38.7969H6.08203Z" fill="white"/>
<path d="M12.1344 28.0547H2.69336C2.83656 31.1616 3.62416 34.1 4.92556 36.7402H12.8319C12.4156 33.9794 12.1786 31.0566 12.1344 28.0547Z" fill="white"/>
<path d="M23.6414 38.7969H15.2754C15.8199 41.5602 16.5599 44.1049 17.4791 46.3283C17.7352 46.9478 18.0022 47.5324 18.2786 48.0819C19.9877 48.6002 21.7844 48.916 23.6414 49.0015V38.7969Z" fill="white"/>
<path d="M31.8633 46.3283C32.7828 44.105 33.5227 41.5602 34.067 38.7969H25.7012V49.0015C27.558 48.916 29.3549 48.6001 31.0641 48.0819C31.3403 47.5324 31.6074 46.9478 31.8633 46.3283Z" fill="white"/>
<path d="M15.5524 6.99219C11.6511 8.77149 8.36093 11.6569 6.08203 15.2478H13.1821C13.7546 12.2207 14.5513 9.42829 15.5524 6.99219Z" fill="white"/>
<path d="M12.8319 17.3047H4.92556C3.62406 19.9448 2.83646 22.8831 2.69336 25.9901H12.1344C12.1786 22.9882 12.4156 20.0655 12.8319 17.3047Z" fill="white"/>
<path d="M37.4459 9.10938C37.0936 10.0903 36.5436 11.3657 35.6895 13.0215C35.8606 13.7478 36.0178 14.4905 36.161 15.248H43.2611C41.7363 12.8451 39.7566 10.7604 37.4459 9.10938Z" fill="white"/>
<path d="M21.6873 6.15905C21.6873 5.84085 21.7072 5.52745 21.7428 5.21875C20.5557 5.37655 19.3983 5.62745 18.2786 5.96685C18.0022 6.51625 17.7351 7.10085 17.4791 7.72025C16.5599 9.94355 15.8199 12.4886 15.2754 15.2518H23.6414V12.1601C21.6893 8.18665 21.6873 6.70795 21.6873 6.15905Z" fill="white"/>
<path d="M14.9133 36.7402H23.6421V28.0547H14.1934C14.239 31.0683 14.4839 33.9934 14.9133 36.7402Z" fill="white"/>
<path d="M14.1934 25.9901H23.6421V17.3047H14.9133C14.4839 20.0516 14.239 22.9766 14.1934 25.9901Z" fill="white"/>
<path d="M25.7012 36.7402H34.4301C34.8594 33.9934 35.1043 31.0682 35.1498 28.0547H25.7012V36.7402Z" fill="white"/>
<path d="M36.5117 17.3047C36.9279 20.0654 37.165 22.9882 37.2094 25.9901H46.6504C46.5072 22.8832 45.7195 19.9449 44.4182 17.3047H36.5117Z" fill="white"/>
<path d="M33.791 47.0523C37.692 45.2731 40.9822 42.3876 43.2611 38.7969H36.1609C35.5885 41.824 34.7922 44.6162 33.791 47.0523Z" fill="white"/>
<path d="M36.5117 36.7402H44.4181C45.7195 34.1001 46.5072 31.1617 46.6503 28.0547H37.2093C37.165 31.0567 36.9279 33.9795 36.5117 36.7402Z" fill="white"/>
<path d="M33.2801 17.3047C32.2102 19.0828 31.3731 20.3457 31.3246 20.4186L29.8842 22.5875L28.4438 20.4186C28.3952 20.3457 27.5583 19.0829 26.4883 17.3047H25.7012V25.9901H35.1498C35.1043 22.9766 34.8594 20.0516 34.4301 17.3047H33.2801Z" fill="white"/>
<path d="M29.8846 0C26.486 0 23.7207 2.765 23.7207 6.1638C23.7207 9.4669 29.432 18.104 29.675 18.4701C29.7217 18.5403 29.8002 18.5826 29.8846 18.5826C29.969 18.5826 30.0475 18.5403 30.0942 18.4701C30.3372 18.1041 36.0483 9.467 36.0483 6.1638C36.0483 2.765 33.2832 0 29.8846 0ZM29.8846 2.9972C31.6252 2.9972 33.0418 4.4135 33.0418 6.1545C33.0418 7.8953 31.6252 9.3115 29.8846 9.3115C28.1438 9.3115 26.7274 7.8953 26.7274 6.1545C26.7274 4.4135 28.1438 2.9972 29.8846 2.9972Z" fill="white"/>
</g>
<defs>
<clipPath id="clip0_448_70364">
<rect width="49" height="49" fill="white" transform="translate(0.171875)"/>
</clipPath>
</defs>
</svg>
