<svg width="47" height="47" viewBox="0 0 47 47" fill="none" xmlns="http://www.w3.org/2000/svg">
<path d="M43.4715 43.7397H40.0641V47H33.2493V43.7397H14.5085V47H7.69372V43.7397H4.28631C2.40372 43.7397 0.878906 42.2324 0.878906 40.3751V11.7761C0.878906 9.91714 2.40372 8.41148 4.28631 8.41148H43.4715C45.3524 8.41148 46.8789 9.91882 46.8789 11.7761V40.3751C46.8789 42.2341 45.3524 43.7397 43.4715 43.7397ZM33.2476 23.5522H26.4345V16.823H21.3234V23.5522H14.5085V28.599H21.3234V35.3282H26.4345V28.599H33.2476V23.5522ZM29.8419 3.32927H19.6196V6.72919H16.2122V5.08222H17.9159V0H31.474V5.04689H33.2493V6.72919H29.8419V3.32927Z" fill="white"/>
</svg>
