<svg width="47" height="47" viewBox="0 0 47 47" fill="none" xmlns="http://www.w3.org/2000/svg">
<g clip-path="url(#clip0_448_70436)">
<path d="M36.1161 19.1191V9.92045H30.674V14.6294L30.5647 14.5393L23.5001 8.71094L16.4355 14.5391L10.8841 19.119L5.03711 23.9427L5.98161 25.0875L10.8841 21.0429V38.0216H36.1161V21.0433L41.0186 25.0878L41.9631 23.943L36.1161 19.1191ZM26.716 36.5376H20.2843V27.2364H26.716V36.5376ZM34.6319 36.5376H28.2002V25.7522H18.8V36.5376H12.3684V19.8188L23.5001 10.635L30.674 16.5534L34.632 19.8187L34.6319 36.5376ZM34.6319 17.8945L32.1581 15.8537V11.4045H34.6319V17.8945Z" fill="white"/>
<path d="M24.2929 22.7812H22.8086V24.2655H24.2929V22.7812Z" fill="white"/>
<path d="M21.3241 22.7812H19.8398V24.2655H21.3241V22.7812Z" fill="white"/>
<path d="M27.2616 22.7812H25.7773V24.2655H27.2616V22.7812Z" fill="white"/>
<path d="M10.5762 40.6094L9.79102 41.8689C10.2262 42.1404 10.6767 42.3973 11.1299 42.633L11.8146 41.3161C11.3955 41.0982 10.9789 40.8603 10.5762 40.6094Z" fill="white"/>
<path d="M12.7674 4.32812C12.2938 4.52108 11.8213 4.7357 11.3633 4.96602L12.03 6.29203C12.4533 6.07915 12.8898 5.88087 13.3272 5.70269L12.7674 4.32812Z" fill="white"/>
<path d="M4.56523 34.6094L3.31055 35.4024C3.58337 35.8339 3.87537 36.2606 4.17839 36.6704L5.37185 35.7879C5.09003 35.407 4.81877 35.0104 4.56523 34.6094Z" fill="white"/>
<path d="M1.66636 26.6016L0.195312 26.7986C0.263059 27.304 0.349807 27.8135 0.452986 28.3128L1.90641 28.0122C1.81011 27.547 1.72942 27.0724 1.66636 26.6016Z" fill="white"/>
<path d="M2.68306 30.7656L1.28711 31.2701C1.46088 31.7507 1.65393 32.2304 1.86102 32.6959L3.21714 32.0925C3.02446 31.6594 2.84472 31.213 2.68306 30.7656Z" fill="white"/>
<path d="M8.7269 6.5625C8.31189 6.85974 7.90238 7.17745 7.50977 7.50663L8.46354 8.64399C8.82723 8.33895 9.20663 8.04456 9.59117 7.76908L8.7269 6.5625Z" fill="white"/>
<path d="M0.0617793 22.2031C0.0236836 22.7104 0.0028457 23.2265 0 23.7369L1.48426 23.7452C1.48693 23.2691 1.50629 22.7876 1.54182 22.3142L0.0617793 22.2031Z" fill="white"/>
<path d="M5.30691 9.65625C4.96956 10.0385 4.64157 10.439 4.33203 10.8469L5.51437 11.7441C5.80179 11.3653 6.10637 10.9934 6.41968 10.6384L5.30691 9.65625Z" fill="white"/>
<path d="M0.885965 17.6797C0.74166 18.1685 0.613145 18.6693 0.503906 19.168L1.95375 19.4857C2.05546 19.0213 2.17516 18.555 2.30946 18.0998L0.885965 17.6797Z" fill="white"/>
<path d="M2.65885 13.4219C2.41275 13.8692 2.17995 14.3311 1.9668 14.7949L3.31557 15.4146C3.51376 14.9832 3.73031 14.5534 3.95934 14.1372L2.65885 13.4219Z" fill="white"/>
<path d="M7.2318 37.9453L6.18164 38.9942C6.54304 39.3561 6.92244 39.7084 7.30937 40.0414L8.27764 38.9164C7.9188 38.6076 7.56695 38.2809 7.2318 37.9453Z" fill="white"/>
<path d="M17.2238 3.11719C16.7162 3.19182 16.206 3.28793 15.707 3.40295L16.0402 4.8493C16.5007 4.74319 16.9715 4.6546 17.4397 4.58566L17.2238 3.11719Z" fill="white"/>
<path d="M14.4344 42.4219L13.9668 43.8305C14.4536 43.9921 14.9532 44.1358 15.4512 44.2577L15.804 42.8161C15.3443 42.7036 14.8835 42.571 14.4344 42.4219Z" fill="white"/>
<path d="M18.6138 43.2734L18.4961 44.753C19.0053 44.7935 19.5238 44.8141 20.0367 44.8141V43.3298C19.5628 43.3299 19.0841 43.3109 18.6138 43.2734Z" fill="white"/>
<path d="M18.3132 0.164062L17.3223 1.26893L20.0707 3.73441L17.3223 6.19989L18.3132 7.30476L22.2933 3.73441L18.3132 0.164062Z" fill="white"/>
<path d="M45.1393 14.3047L43.7832 14.9081C43.9759 15.3412 44.1556 15.7877 44.3173 16.235L45.7132 15.7305C45.5395 15.2498 45.3464 14.7702 45.1393 14.3047Z" fill="white"/>
<path d="M42.8224 10.3281L41.6289 11.2107C41.9107 11.5916 42.1821 11.9882 42.4355 12.3892L43.6902 11.5962C43.4174 11.1647 43.1254 10.738 42.8224 10.3281Z" fill="white"/>
<path d="M46.5472 18.6875L45.0938 18.988C45.19 19.4533 45.2707 19.9279 45.3338 20.3988L46.8048 20.2018C46.737 19.6963 46.6504 19.1868 46.5472 18.6875Z" fill="white"/>
<path d="M26.9629 2.1875V3.67176C27.4368 3.67176 27.9156 3.69077 28.3858 3.72813L28.5035 2.24855C27.9943 2.20806 27.4759 2.1875 26.9629 2.1875Z" fill="white"/>
<path d="M39.689 6.95312L38.7207 8.078C39.0795 8.38681 39.4314 8.71351 39.7665 9.04921L40.8166 8.00034C40.4553 7.63839 40.0758 7.28607 39.689 6.95312Z" fill="white"/>
<path d="M35.8703 4.36719L35.1855 5.68411C35.6046 5.90203 36.0213 6.13979 36.424 6.39076L37.2091 5.13121C36.774 4.85986 36.3235 4.60283 35.8703 4.36719Z" fill="white"/>
<path d="M31.5482 2.74219L31.1953 4.18386C31.6549 4.2964 32.1158 4.42895 32.5648 4.57803L33.0324 3.16941C32.5456 3.00785 32.0462 2.86409 31.5482 2.74219Z" fill="white"/>
<path d="M38.5358 38.3594C38.172 38.6644 37.7926 38.9588 37.4082 39.2343L38.2724 40.4409C38.6874 40.1436 39.0969 39.8259 39.4895 39.4967L38.5358 38.3594Z" fill="white"/>
<path d="M43.6848 31.5781C43.4866 32.0097 43.27 32.4394 43.041 32.8555L44.3415 33.5709C44.5876 33.1235 44.8204 32.6616 45.0336 32.1978L43.6848 31.5781Z" fill="white"/>
<path d="M41.4854 35.2578C41.1981 35.6366 40.8934 36.0086 40.5801 36.3635L41.6928 37.3456C42.0302 36.9634 42.3582 36.5629 42.6677 36.1549L41.4854 35.2578Z" fill="white"/>
<path d="M45.0453 27.5156C44.9435 27.9801 44.8238 28.4464 44.6895 28.9016L46.113 29.3216C46.2573 28.8328 46.3859 28.3321 46.4951 27.8333L45.0453 27.5156Z" fill="white"/>
<path d="M30.9601 42.1562C30.4995 42.2624 30.0287 42.351 29.5605 42.4199L29.7765 43.8884C30.284 43.8137 30.7942 43.7176 31.2932 43.6026L30.9601 42.1562Z" fill="white"/>
<path d="M34.971 40.7031C34.5478 40.916 34.1112 41.1143 33.6738 41.2925L34.2337 42.667C34.7073 42.4741 35.1798 42.2594 35.6378 42.0291L34.971 40.7031Z" fill="white"/>
<path d="M45.5146 23.2578C45.5119 23.7341 45.4926 24.2154 45.457 24.6888L46.9371 24.7998C46.9752 24.2925 46.9959 23.7765 46.9989 23.2661L45.5146 23.2578Z" fill="white"/>
<path d="M29.6781 40.8002L28.6872 39.6953L24.707 43.2657L28.6872 46.836L29.6781 45.7311L26.9297 43.2657L29.6781 40.8002Z" fill="white"/>
<path d="M26.2225 30.9453H24.7383V32.4296H26.2225V30.9453Z" fill="white"/>
</g>
<defs>
<clipPath id="clip0_448_70436">
<rect width="47" height="47" fill="white"/>
</clipPath>
</defs>
</svg>
