<svg width="52" height="51" viewBox="0 0 52 51" fill="none" xmlns="http://www.w3.org/2000/svg">
<path d="M42.5268 3.1875H10.0568L5.99805 11.305V15.3638C5.99805 16.4402 6.42566 17.4726 7.18683 18.2337C7.94799 18.9949 8.98035 19.4225 10.0568 19.4225C11.1332 19.4225 12.1656 18.9949 12.9268 18.2337C13.6879 17.4726 14.1155 16.4402 14.1155 15.3638C14.1155 16.4402 14.5432 17.4726 15.3043 18.2337C16.0655 18.9949 17.0978 19.4225 18.1743 19.4225C19.2507 19.4225 20.2831 18.9949 21.0443 18.2337C21.8054 17.4726 22.233 16.4402 22.233 15.3638C22.233 16.4402 22.6607 17.4726 23.4218 18.2337C24.183 18.9949 25.2153 19.4225 26.2918 19.4225C27.3682 19.4225 28.4006 18.9949 29.1618 18.2337C29.9229 17.4726 30.3505 16.4402 30.3505 15.3638C30.3505 16.4402 30.7782 17.4726 31.5393 18.2337C32.3005 18.9949 33.3328 19.4225 34.4093 19.4225C35.4857 19.4225 36.5181 18.9949 37.2793 18.2337C38.0404 17.4726 38.468 16.4402 38.468 15.3638C38.468 16.4402 38.8957 17.4726 39.6568 18.2337C40.418 18.9949 41.4503 19.4225 42.5268 19.4225C43.6032 19.4225 44.6356 18.9949 45.3968 18.2337C46.1579 17.4726 46.5855 16.4402 46.5855 15.3638V11.305L42.5268 3.1875Z" stroke="white" stroke-width="4.05875" stroke-miterlimit="10"/>
<path d="M26.2933 29.5625C28.4462 29.5625 30.5109 30.4177 32.0332 31.9401C33.5555 33.4624 34.4108 35.5271 34.4108 37.68V39.805H18.1758V37.68C18.1758 35.5271 19.031 33.4624 20.5533 31.9401C22.0757 30.4177 24.1404 29.5625 26.2933 29.5625Z" stroke="white" stroke-width="4.05875" stroke-miterlimit="10"/>
<path d="M26.293 25.5V29.5587" stroke="white" stroke-width="4.05875" stroke-miterlimit="10"/>
<path d="M14.1172 39.6953H38.4697" stroke="white" stroke-width="4.05875" stroke-miterlimit="10"/>
<path d="M1.96289 47.8125H50.6254" stroke="white" stroke-width="4.05875" stroke-miterlimit="10"/>
<path d="M8.03906 17.3828V47.8128" stroke="white" stroke-width="4.05875" stroke-miterlimit="10"/>
<path d="M44.5469 17.3828V47.8128" stroke="white" stroke-width="4.05875" stroke-miterlimit="10"/>
<path d="M5.99805 11.3047H46.5855" stroke="white" stroke-width="4.05875" stroke-miterlimit="10"/>
<path d="M14.1172 11.3047V15.3634" stroke="white" stroke-width="4.05875" stroke-miterlimit="10"/>
<path d="M22.2344 11.3047V15.3634" stroke="white" stroke-width="4.05875" stroke-miterlimit="10"/>
<path d="M30.3516 11.3047V15.3634" stroke="white" stroke-width="4.05875" stroke-miterlimit="10"/>
<path d="M38.4688 11.3047V15.3634" stroke="white" stroke-width="4.05875" stroke-miterlimit="10"/>
</svg>
