<svg width="876" height="107" viewBox="0 0 876 107" fill="none" xmlns="http://www.w3.org/2000/svg">
<path d="M438.123 2.07031C435.036 2.07031 432.566 3.70564 432.566 5.74981C432.566 7.79397 435.036 9.42931 438.123 9.42931C441.21 9.42931 443.68 7.79397 443.68 5.74981C443.68 3.70564 441.21 2.07031 438.123 2.07031Z" fill="white"/>
<path d="M438.123 9.42931C441.21 9.42931 443.68 7.79397 443.68 5.74981C443.68 3.70564 441.21 2.07031 438.123 2.07031C435.036 2.07031 432.566 3.70564 432.566 5.74981C432.566 7.79397 435.036 9.42931 438.123 9.42931ZM438.123 9.42931V40.3329C438.123 49.4572 430.726 56.8539 421.602 56.8539H26.1617C17.0373 56.8539 9.64062 64.2507 9.64062 73.375V105.505" stroke="#D8D8D8" stroke-width="2.47816"/>
<path d="M437.635 2.07031C440.722 2.07031 443.191 3.70564 443.191 5.74981C443.191 7.79397 440.722 9.42931 437.635 9.42931C434.548 9.42931 432.078 7.79397 432.078 5.74981C432.078 3.70564 434.548 2.07031 437.635 2.07031Z" fill="white"/>
<path d="M437.635 9.42931C434.548 9.42931 432.078 7.79397 432.078 5.74981C432.078 3.70564 434.548 2.07031 437.635 2.07031C440.722 2.07031 443.191 3.70564 443.191 5.74981C443.191 7.79397 440.722 9.42931 437.635 9.42931ZM437.635 9.42931V40.3329C437.635 49.4572 445.031 56.8539 454.156 56.8539H849.596C858.72 56.8539 866.117 64.2507 866.117 73.375V105.505" stroke="#D8D8D8" stroke-width="2.47816"/>
<path d="M437.817 2.07031C434.863 2.07031 432.5 3.59702 432.5 5.50541C432.5 7.4138 434.863 8.94052 437.817 8.94052C440.77 8.94052 443.133 7.4138 443.133 5.50541C443.133 3.59702 440.77 2.07031 437.817 2.07031Z" fill="white"/>
<path d="M437.817 8.94052C440.77 8.94052 443.133 7.4138 443.133 5.50541C443.133 3.59702 440.77 2.07031 437.817 2.07031C434.863 2.07031 432.5 3.59702 432.5 5.50541C432.5 7.4138 434.863 8.94052 437.817 8.94052ZM437.817 8.94052V53.2152V79.1693V105.505" stroke="#D8D8D8" stroke-width="2.47816"/>
</svg>
