<svg width="105" height="101" viewBox="0 0 105 101" fill="none" xmlns="http://www.w3.org/2000/svg">
<g id="mongodb">
<g id="mongodb_2">
<path id="Vector" d="M53.1445 1.15234L55.8131 6.16447C56.413 7.0894 57.063 7.90809 57.8286 8.67053C60.073 10.887 62.1652 13.2526 64.0906 15.7513C68.6122 21.6883 71.662 28.2816 73.8399 35.4123C75.1461 39.7682 75.8554 44.2366 75.9085 48.755C76.1273 62.2634 71.4963 73.8625 62.1595 83.5024C60.6408 85.0311 59 86.4336 57.2536 87.6959C56.3287 87.6959 55.8912 86.9866 55.51 86.3335C54.8157 85.1225 54.3537 83.7925 54.1476 82.4119C53.8195 80.7776 53.6039 79.1434 53.7101 77.456V76.6936C53.6351 76.5311 52.8195 1.53669 53.1445 1.15234Z" fill="#599636"/>
<path id="Vector_2" d="M53.1455 0.986408C53.0361 0.767674 52.9268 0.933287 52.8174 1.03953C52.8705 2.1332 52.4893 3.10813 51.8925 4.03931C51.2363 4.96424 50.3676 5.67356 49.4958 6.43601C44.6524 10.6294 40.8401 15.6947 37.7872 21.3599C33.725 28.9843 31.6314 37.1556 31.0377 45.7581C30.7659 48.861 32.0189 59.8102 32.997 62.9693C35.6655 71.3562 40.4589 78.3838 46.6679 84.4834C48.1927 85.952 49.8239 87.3144 51.5113 88.6237C52.0018 88.6237 52.055 88.1862 52.1675 87.8612C52.3825 87.1659 52.5465 86.4557 52.658 85.7364L53.7517 77.5683L53.1455 0.986408Z" fill="#6CAC48"/>
<path id="Vector_3" d="M55.8145 91.0129C55.9239 89.763 56.5239 88.7256 57.1769 87.6913C56.5207 87.4194 56.0333 86.8788 55.652 86.2758C55.3233 85.7048 55.0512 85.103 54.8396 84.479C54.0772 82.1917 53.9147 79.7919 53.6959 77.4546V76.0391C53.4241 76.2578 53.3678 78.1076 53.3678 78.3826C53.2088 80.853 52.881 83.3096 52.3867 85.7352C52.2242 86.7163 52.1148 87.6944 51.5117 88.5662C51.5117 88.6756 51.5117 88.7849 51.5648 88.9474C52.546 91.8347 52.8148 94.7751 52.9804 97.7717V98.8654C52.9804 100.172 52.9272 99.8966 54.0115 100.334C54.449 100.497 54.9365 100.553 55.3739 100.878C55.702 100.878 55.7552 100.606 55.7552 100.387L55.5927 98.5904V93.5783C55.5396 92.7034 55.702 91.8347 55.8114 91.016L55.8145 91.0129Z" fill="#C2BFBF"/>
</g>
</g>
</svg>
