<svg width="29" height="30" viewBox="0 0 29 30" fill="none" xmlns="http://www.w3.org/2000/svg">
<g clip-path="url(#clip0_440_69982)">
<path d="M14.2658 25.4486C15.0508 26.3615 16.1262 26.9762 17.3111 27.1894C18.4961 27.4027 19.7183 27.2014 20.7723 26.6195L21.6863 26.136C22.0911 25.9101 22.3914 25.5346 22.523 25.09C22.6545 24.6455 22.6067 24.1671 22.39 23.7572L20.2618 19.8897C20.0382 19.4866 19.6652 19.1875 19.2233 19.0568C18.7813 18.926 18.3056 18.9741 17.8987 19.1906C17.4889 19.4074 17.0105 19.4551 16.5659 19.3236C16.1213 19.1921 15.7459 18.8918 15.5199 18.487L12.1918 12.3628C12.0801 12.1608 12.0097 11.9386 11.9847 11.7091C11.9596 11.4796 11.9804 11.2475 12.0459 11.0261C12.1114 10.8048 12.2202 10.5986 12.3661 10.4197C12.5119 10.2408 12.6919 10.0927 12.8955 9.98396C13.2986 9.76037 13.5977 9.38741 13.7284 8.94543C13.8592 8.50344 13.8111 8.02778 13.5946 7.6209L11.4868 3.74225C11.2608 3.33741 10.8854 3.03711 10.4408 2.90559C9.99619 2.77408 9.51779 2.82181 9.10795 3.03856L8.20508 3.54244C7.1434 4.11025 6.30961 5.0263 5.84389 6.13656C5.37818 7.24683 5.30895 8.48359 5.64785 9.63889C7.48725 15.4096 10.4123 20.7757 14.2658 25.4486Z" fill="white" stroke="white" stroke-width="1.64286" stroke-linecap="round" stroke-linejoin="round"/>
</g>
<defs>
<clipPath id="clip0_440_69982">
<rect width="23" height="23" fill="white" transform="translate(6.52344 0.890625) rotate(16.4789)"/>
</clipPath>
</defs>
</svg>
